<mxfile host="app.diagrams.net" modified="2024-03-04T09:47:14.498Z" agent="Mozilla/5.0 (Windows NT 10.0; Win64; x64) AppleWebKit/537.36 (KHTML, like Gecko) Chrome/122.0.0.0 Safari/537.36" etag="czrPkLF0xm8Dt7YY3Mk-" version="24.0.1" type="github">
  <diagram name="第 1 页" id="WgCBJ3CbeENlblQUNnHD">
    <mxGraphModel dx="1702" dy="478" grid="1" gridSize="10" guides="1" tooltips="1" connect="1" arrows="1" fold="1" page="1" pageScale="1" pageWidth="827" pageHeight="1169" math="0" shadow="0">
      <root>
        <mxCell id="0" />
        <mxCell id="1" parent="0" />
        <mxCell id="BGu2Se2h_cnL7VPhvoZh-4" style="edgeStyle=orthogonalEdgeStyle;rounded=0;orthogonalLoop=1;jettySize=auto;html=1;exitX=1;exitY=0.5;exitDx=0;exitDy=0;entryX=0;entryY=0.5;entryDx=0;entryDy=0;endArrow=none;endFill=0;" edge="1" parent="1" source="BGu2Se2h_cnL7VPhvoZh-1" target="BGu2Se2h_cnL7VPhvoZh-3">
          <mxGeometry relative="1" as="geometry" />
        </mxCell>
        <mxCell id="BGu2Se2h_cnL7VPhvoZh-19" value="1" style="edgeLabel;html=1;align=center;verticalAlign=middle;resizable=0;points=[];" vertex="1" connectable="0" parent="BGu2Se2h_cnL7VPhvoZh-4">
          <mxGeometry x="-0.088" relative="1" as="geometry">
            <mxPoint as="offset" />
          </mxGeometry>
        </mxCell>
        <mxCell id="BGu2Se2h_cnL7VPhvoZh-1" value="&lt;font style=&quot;font-size: 15px;&quot;&gt;普通客户&lt;/font&gt;" style="rounded=0;whiteSpace=wrap;html=1;" vertex="1" parent="1">
          <mxGeometry x="-10" y="220" width="80" height="40" as="geometry" />
        </mxCell>
        <mxCell id="BGu2Se2h_cnL7VPhvoZh-10" style="edgeStyle=orthogonalEdgeStyle;rounded=0;orthogonalLoop=1;jettySize=auto;html=1;exitX=0.5;exitY=1;exitDx=0;exitDy=0;entryX=0.5;entryY=0;entryDx=0;entryDy=0;endArrow=none;endFill=0;" edge="1" parent="1" source="BGu2Se2h_cnL7VPhvoZh-2" target="BGu2Se2h_cnL7VPhvoZh-9">
          <mxGeometry relative="1" as="geometry" />
        </mxCell>
        <mxCell id="BGu2Se2h_cnL7VPhvoZh-21" value="1" style="edgeLabel;html=1;align=center;verticalAlign=middle;resizable=0;points=[];" vertex="1" connectable="0" parent="BGu2Se2h_cnL7VPhvoZh-10">
          <mxGeometry x="-0.04" y="-3" relative="1" as="geometry">
            <mxPoint as="offset" />
          </mxGeometry>
        </mxCell>
        <mxCell id="BGu2Se2h_cnL7VPhvoZh-81" style="edgeStyle=orthogonalEdgeStyle;rounded=0;orthogonalLoop=1;jettySize=auto;html=1;exitX=1;exitY=0.5;exitDx=0;exitDy=0;entryX=0;entryY=0.5;entryDx=0;entryDy=0;endArrow=none;endFill=0;" edge="1" parent="1" source="BGu2Se2h_cnL7VPhvoZh-2" target="BGu2Se2h_cnL7VPhvoZh-80">
          <mxGeometry relative="1" as="geometry" />
        </mxCell>
        <mxCell id="BGu2Se2h_cnL7VPhvoZh-82" value="1" style="edgeLabel;html=1;align=center;verticalAlign=middle;resizable=0;points=[];" vertex="1" connectable="0" parent="BGu2Se2h_cnL7VPhvoZh-81">
          <mxGeometry x="-0.004" y="-1" relative="1" as="geometry">
            <mxPoint as="offset" />
          </mxGeometry>
        </mxCell>
        <mxCell id="BGu2Se2h_cnL7VPhvoZh-2" value="&lt;font style=&quot;font-size: 15px;&quot;&gt;APK&lt;/font&gt;" style="rounded=0;whiteSpace=wrap;html=1;" vertex="1" parent="1">
          <mxGeometry x="200" y="220" width="80" height="40" as="geometry" />
        </mxCell>
        <mxCell id="BGu2Se2h_cnL7VPhvoZh-5" style="edgeStyle=orthogonalEdgeStyle;rounded=0;orthogonalLoop=1;jettySize=auto;html=1;exitX=1;exitY=0.5;exitDx=0;exitDy=0;entryX=0;entryY=0.5;entryDx=0;entryDy=0;endArrow=none;endFill=0;" edge="1" parent="1" source="BGu2Se2h_cnL7VPhvoZh-3" target="BGu2Se2h_cnL7VPhvoZh-2">
          <mxGeometry relative="1" as="geometry" />
        </mxCell>
        <mxCell id="BGu2Se2h_cnL7VPhvoZh-20" value="n" style="edgeLabel;html=1;align=center;verticalAlign=middle;resizable=0;points=[];" vertex="1" connectable="0" parent="BGu2Se2h_cnL7VPhvoZh-5">
          <mxGeometry x="-0.288" y="3" relative="1" as="geometry">
            <mxPoint as="offset" />
          </mxGeometry>
        </mxCell>
        <mxCell id="BGu2Se2h_cnL7VPhvoZh-3" value="&lt;font style=&quot;font-size: 15px;&quot;&gt;上传&lt;/font&gt;" style="rhombus;whiteSpace=wrap;html=1;" vertex="1" parent="1">
          <mxGeometry x="100" y="220" width="80" height="40" as="geometry" />
        </mxCell>
        <mxCell id="BGu2Se2h_cnL7VPhvoZh-8" value="&lt;font style=&quot;font-size: 15px;&quot;&gt;静态分析&lt;/font&gt;&lt;div&gt;&lt;font style=&quot;font-size: 15px;&quot;&gt;报告&lt;/font&gt;&lt;/div&gt;" style="rounded=0;whiteSpace=wrap;html=1;" vertex="1" parent="1">
          <mxGeometry x="200" y="336" width="80" height="40" as="geometry" />
        </mxCell>
        <mxCell id="BGu2Se2h_cnL7VPhvoZh-11" style="edgeStyle=orthogonalEdgeStyle;rounded=0;orthogonalLoop=1;jettySize=auto;html=1;exitX=0.5;exitY=1;exitDx=0;exitDy=0;entryX=0.5;entryY=0;entryDx=0;entryDy=0;endArrow=none;endFill=0;" edge="1" parent="1" source="BGu2Se2h_cnL7VPhvoZh-9" target="BGu2Se2h_cnL7VPhvoZh-8">
          <mxGeometry relative="1" as="geometry" />
        </mxCell>
        <mxCell id="BGu2Se2h_cnL7VPhvoZh-22" value="1" style="edgeLabel;html=1;align=center;verticalAlign=middle;resizable=0;points=[];" vertex="1" connectable="0" parent="BGu2Se2h_cnL7VPhvoZh-11">
          <mxGeometry x="-0.1733" relative="1" as="geometry">
            <mxPoint as="offset" />
          </mxGeometry>
        </mxCell>
        <mxCell id="BGu2Se2h_cnL7VPhvoZh-9" value="&lt;font style=&quot;font-size: 15px;&quot;&gt;生成&lt;/font&gt;" style="rhombus;whiteSpace=wrap;html=1;" vertex="1" parent="1">
          <mxGeometry x="200" y="276" width="80" height="40" as="geometry" />
        </mxCell>
        <mxCell id="BGu2Se2h_cnL7VPhvoZh-28" style="edgeStyle=orthogonalEdgeStyle;rounded=0;orthogonalLoop=1;jettySize=auto;html=1;exitX=1;exitY=0.5;exitDx=0;exitDy=0;entryX=0;entryY=0.5;entryDx=0;entryDy=0;endArrow=none;endFill=0;" edge="1" parent="1" source="BGu2Se2h_cnL7VPhvoZh-14" target="BGu2Se2h_cnL7VPhvoZh-27">
          <mxGeometry relative="1" as="geometry" />
        </mxCell>
        <mxCell id="BGu2Se2h_cnL7VPhvoZh-30" value="1" style="edgeLabel;html=1;align=center;verticalAlign=middle;resizable=0;points=[];" vertex="1" connectable="0" parent="BGu2Se2h_cnL7VPhvoZh-28">
          <mxGeometry x="-0.088" y="-1" relative="1" as="geometry">
            <mxPoint as="offset" />
          </mxGeometry>
        </mxCell>
        <mxCell id="BGu2Se2h_cnL7VPhvoZh-44" value="1" style="edgeLabel;html=1;align=center;verticalAlign=middle;resizable=0;points=[];" vertex="1" connectable="0" parent="BGu2Se2h_cnL7VPhvoZh-28">
          <mxGeometry x="-0.0662" y="1" relative="1" as="geometry">
            <mxPoint as="offset" />
          </mxGeometry>
        </mxCell>
        <mxCell id="BGu2Se2h_cnL7VPhvoZh-66" style="edgeStyle=orthogonalEdgeStyle;rounded=0;orthogonalLoop=1;jettySize=auto;html=1;exitX=0.5;exitY=1;exitDx=0;exitDy=0;entryX=0.5;entryY=0;entryDx=0;entryDy=0;endArrow=none;endFill=0;" edge="1" parent="1" source="BGu2Se2h_cnL7VPhvoZh-14" target="BGu2Se2h_cnL7VPhvoZh-59">
          <mxGeometry relative="1" as="geometry" />
        </mxCell>
        <mxCell id="BGu2Se2h_cnL7VPhvoZh-68" value="1" style="edgeLabel;html=1;align=center;verticalAlign=middle;resizable=0;points=[];" vertex="1" connectable="0" parent="BGu2Se2h_cnL7VPhvoZh-66">
          <mxGeometry x="-0.0733" y="1" relative="1" as="geometry">
            <mxPoint as="offset" />
          </mxGeometry>
        </mxCell>
        <mxCell id="BGu2Se2h_cnL7VPhvoZh-14" value="&lt;font style=&quot;font-size: 15px;&quot;&gt;运维人员&lt;/font&gt;" style="rounded=0;whiteSpace=wrap;html=1;" vertex="1" parent="1">
          <mxGeometry x="-10" y="100" width="80" height="40" as="geometry" />
        </mxCell>
        <mxCell id="BGu2Se2h_cnL7VPhvoZh-15" value="&lt;span style=&quot;font-size: 15px;&quot;&gt;训练集&lt;/span&gt;" style="rounded=0;whiteSpace=wrap;html=1;" vertex="1" parent="1">
          <mxGeometry x="100" y="30" width="80" height="40" as="geometry" />
        </mxCell>
        <mxCell id="BGu2Se2h_cnL7VPhvoZh-76" style="edgeStyle=orthogonalEdgeStyle;rounded=0;orthogonalLoop=1;jettySize=auto;html=1;exitX=1;exitY=0.5;exitDx=0;exitDy=0;entryX=0;entryY=0.5;entryDx=0;entryDy=0;endArrow=none;endFill=0;" edge="1" parent="1" source="BGu2Se2h_cnL7VPhvoZh-16" target="BGu2Se2h_cnL7VPhvoZh-18">
          <mxGeometry relative="1" as="geometry" />
        </mxCell>
        <mxCell id="BGu2Se2h_cnL7VPhvoZh-77" value="1" style="edgeLabel;html=1;align=center;verticalAlign=middle;resizable=0;points=[];" vertex="1" connectable="0" parent="BGu2Se2h_cnL7VPhvoZh-76">
          <mxGeometry x="0.124" y="1" relative="1" as="geometry">
            <mxPoint as="offset" />
          </mxGeometry>
        </mxCell>
        <mxCell id="BGu2Se2h_cnL7VPhvoZh-16" value="&lt;span style=&quot;font-size: 15px;&quot;&gt;检测模型&lt;/span&gt;" style="rounded=0;whiteSpace=wrap;html=1;" vertex="1" parent="1">
          <mxGeometry x="200" y="100" width="80" height="40" as="geometry" />
        </mxCell>
        <mxCell id="BGu2Se2h_cnL7VPhvoZh-78" style="edgeStyle=orthogonalEdgeStyle;rounded=0;orthogonalLoop=1;jettySize=auto;html=1;exitX=0.5;exitY=1;exitDx=0;exitDy=0;entryX=0.5;entryY=0;entryDx=0;entryDy=0;endArrow=none;endFill=0;" edge="1" parent="1" source="BGu2Se2h_cnL7VPhvoZh-18" target="BGu2Se2h_cnL7VPhvoZh-38">
          <mxGeometry relative="1" as="geometry" />
        </mxCell>
        <mxCell id="BGu2Se2h_cnL7VPhvoZh-79" value="n" style="edgeLabel;html=1;align=center;verticalAlign=middle;resizable=0;points=[];" vertex="1" connectable="0" parent="BGu2Se2h_cnL7VPhvoZh-78">
          <mxGeometry x="-0.264" relative="1" as="geometry">
            <mxPoint y="3" as="offset" />
          </mxGeometry>
        </mxCell>
        <mxCell id="BGu2Se2h_cnL7VPhvoZh-18" value="&lt;font style=&quot;font-size: 15px;&quot;&gt;生成&lt;/font&gt;" style="rhombus;whiteSpace=wrap;html=1;" vertex="1" parent="1">
          <mxGeometry x="300" y="100" width="80" height="40" as="geometry" />
        </mxCell>
        <mxCell id="BGu2Se2h_cnL7VPhvoZh-29" style="edgeStyle=orthogonalEdgeStyle;rounded=0;orthogonalLoop=1;jettySize=auto;html=1;exitX=1;exitY=0.5;exitDx=0;exitDy=0;entryX=0;entryY=0.5;entryDx=0;entryDy=0;endArrow=none;endFill=0;" edge="1" parent="1" source="BGu2Se2h_cnL7VPhvoZh-27" target="BGu2Se2h_cnL7VPhvoZh-16">
          <mxGeometry relative="1" as="geometry" />
        </mxCell>
        <mxCell id="BGu2Se2h_cnL7VPhvoZh-31" value="m" style="edgeLabel;html=1;align=center;verticalAlign=middle;resizable=0;points=[];" vertex="1" connectable="0" parent="BGu2Se2h_cnL7VPhvoZh-29">
          <mxGeometry x="0.1291" relative="1" as="geometry">
            <mxPoint as="offset" />
          </mxGeometry>
        </mxCell>
        <mxCell id="BGu2Se2h_cnL7VPhvoZh-36" style="rounded=0;orthogonalLoop=1;jettySize=auto;html=1;exitX=0.5;exitY=0;exitDx=0;exitDy=0;entryX=0.5;entryY=1;entryDx=0;entryDy=0;endArrow=none;endFill=0;" edge="1" parent="1" source="BGu2Se2h_cnL7VPhvoZh-27" target="BGu2Se2h_cnL7VPhvoZh-15">
          <mxGeometry relative="1" as="geometry" />
        </mxCell>
        <mxCell id="BGu2Se2h_cnL7VPhvoZh-37" value="n" style="edgeLabel;html=1;align=center;verticalAlign=middle;resizable=0;points=[];" vertex="1" connectable="0" parent="BGu2Se2h_cnL7VPhvoZh-36">
          <mxGeometry x="-0.0063" y="1" relative="1" as="geometry">
            <mxPoint as="offset" />
          </mxGeometry>
        </mxCell>
        <mxCell id="BGu2Se2h_cnL7VPhvoZh-27" value="&lt;font style=&quot;font-size: 15px;&quot;&gt;管理&lt;/font&gt;" style="rhombus;whiteSpace=wrap;html=1;" vertex="1" parent="1">
          <mxGeometry x="100" y="100" width="80" height="40" as="geometry" />
        </mxCell>
        <mxCell id="BGu2Se2h_cnL7VPhvoZh-83" style="edgeStyle=orthogonalEdgeStyle;rounded=0;orthogonalLoop=1;jettySize=auto;html=1;exitX=0.5;exitY=1;exitDx=0;exitDy=0;entryX=0.5;entryY=0;entryDx=0;entryDy=0;endArrow=none;endFill=0;" edge="1" parent="1" source="BGu2Se2h_cnL7VPhvoZh-38" target="BGu2Se2h_cnL7VPhvoZh-80">
          <mxGeometry relative="1" as="geometry" />
        </mxCell>
        <mxCell id="BGu2Se2h_cnL7VPhvoZh-84" value="1" style="edgeLabel;html=1;align=center;verticalAlign=middle;resizable=0;points=[];" vertex="1" connectable="0" parent="BGu2Se2h_cnL7VPhvoZh-83">
          <mxGeometry x="0.071" y="-1" relative="1" as="geometry">
            <mxPoint as="offset" />
          </mxGeometry>
        </mxCell>
        <mxCell id="BGu2Se2h_cnL7VPhvoZh-38" value="&lt;font style=&quot;font-size: 15px;&quot;&gt;恶意检测&lt;/font&gt;&lt;div&gt;&lt;font style=&quot;font-size: 15px;&quot;&gt;报告&lt;/font&gt;&lt;/div&gt;" style="rounded=0;whiteSpace=wrap;html=1;" vertex="1" parent="1">
          <mxGeometry x="300" y="160" width="80" height="40" as="geometry" />
        </mxCell>
        <mxCell id="BGu2Se2h_cnL7VPhvoZh-62" style="edgeStyle=orthogonalEdgeStyle;rounded=0;orthogonalLoop=1;jettySize=auto;html=1;exitX=1;exitY=0.5;exitDx=0;exitDy=0;entryX=0;entryY=0.5;entryDx=0;entryDy=0;endArrow=none;endFill=0;" edge="1" parent="1" source="BGu2Se2h_cnL7VPhvoZh-58" target="BGu2Se2h_cnL7VPhvoZh-59">
          <mxGeometry relative="1" as="geometry" />
        </mxCell>
        <mxCell id="BGu2Se2h_cnL7VPhvoZh-63" value="1" style="edgeLabel;html=1;align=center;verticalAlign=middle;resizable=0;points=[];" vertex="1" connectable="0" parent="BGu2Se2h_cnL7VPhvoZh-62">
          <mxGeometry x="-0.1069" relative="1" as="geometry">
            <mxPoint as="offset" />
          </mxGeometry>
        </mxCell>
        <mxCell id="BGu2Se2h_cnL7VPhvoZh-58" value="&lt;span style=&quot;font-size: 15px;&quot;&gt;用户&lt;/span&gt;" style="rounded=0;whiteSpace=wrap;html=1;" vertex="1" parent="1">
          <mxGeometry x="-110" y="160" width="80" height="40" as="geometry" />
        </mxCell>
        <mxCell id="BGu2Se2h_cnL7VPhvoZh-67" style="edgeStyle=orthogonalEdgeStyle;rounded=0;orthogonalLoop=1;jettySize=auto;html=1;exitX=0.5;exitY=1;exitDx=0;exitDy=0;entryX=0.5;entryY=0;entryDx=0;entryDy=0;endArrow=none;endFill=0;" edge="1" parent="1" source="BGu2Se2h_cnL7VPhvoZh-59" target="BGu2Se2h_cnL7VPhvoZh-1">
          <mxGeometry relative="1" as="geometry" />
        </mxCell>
        <mxCell id="BGu2Se2h_cnL7VPhvoZh-69" value="1" style="edgeLabel;html=1;align=center;verticalAlign=middle;resizable=0;points=[];" vertex="1" connectable="0" parent="BGu2Se2h_cnL7VPhvoZh-67">
          <mxGeometry x="-0.1733" y="-1" relative="1" as="geometry">
            <mxPoint as="offset" />
          </mxGeometry>
        </mxCell>
        <mxCell id="BGu2Se2h_cnL7VPhvoZh-59" value="&lt;font style=&quot;font-size: 15px;&quot;&gt;属于&lt;/font&gt;" style="rhombus;whiteSpace=wrap;html=1;" vertex="1" parent="1">
          <mxGeometry x="-10" y="160" width="80" height="40" as="geometry" />
        </mxCell>
        <mxCell id="BGu2Se2h_cnL7VPhvoZh-80" value="&lt;font style=&quot;font-size: 15px;&quot;&gt;生成&lt;/font&gt;" style="rhombus;whiteSpace=wrap;html=1;" vertex="1" parent="1">
          <mxGeometry x="300" y="220" width="80" height="40" as="geometry" />
        </mxCell>
      </root>
    </mxGraphModel>
  </diagram>
</mxfile>
